# xmcd
#
# Track frame offsets: 
#        150
#        10715
#        20080
#        32497
#        42655
#        54842
#        64489
#        76912
#        87256
#        98486
#        110123
#        122705
#        133110
#        145160
#        158363
#        168135
#        180266
#        191021
#        202139
#        213285
#        224577
#        237778
#        251284
#        264769
#        277935
#        294039
#
# Disc length: 4071 seconds
#
# Revision: 0
# Processed by: cddbd v1.5.2PL0 Copyright (c) Steve Scherf et al.
# Submitted via: ExactAudioCopy v1.1
#
DISCID=5f0fe51a
DTITLE=Various Artist - All-Time Country Favourites Jukebox Classics 
DTITLE=Disc 2
DYEAR=2011
DGENRE=Country
TTITLE0=June Carter Cash - Juke box blues
TTITLE1=Chet Atkins - Freight train
TTITLE2=Marty Robbins - Cigarettes and coffee blues
TTITLE3=Everly Brothers - Bird dog
TTITLE4=Elvis Presley - I want you, I need you, I love you
TTITLE5=Faron Yong - Goin' steady
TTITLE6=Bill Monroe and his Bluegrass Boys - Uncle Pen
TTITLE7=Kitty Wells - I heard the jukebox playing
TTITLE8=Johnny Rodriguez - Dance with me ( just one more time )
TTITLE9=Bill Anderson - Three A.M.
TTITLE10=Sonny James - Running Bear
TTITLE11=Don Gibson - Don't tell me your troubles
TTITLE12=Johnny Tillotson - Talk back trembling lips
TTITLE13=Carl Perkins - Let the jukebox keep playing
TTITLE14=Dave Dudley - Last day in the mines
TTITLE15=Hank Snow - The gal who invented kissin'
TTITLE16=Patsy Cline - Gotta lot of rhythm in my soul
TTITLE17=Webb Pierce - There stands the glass
TTITLE18=Eddy Arnold - It's a sin
TTITLE19=Bobby Sykes - You are my sunshine
TTITLE20=Lefty Frizzell - Travellin' blues
TTITLE21=Conway Twitty - There's a honkey tonk angel ( who'll take me 
TTITLE21=back in )
TTITLE22=Skeeter Davis - Bus fare to Kentucky
TTITLE23=Merle Haggard  - Kentucky gambler
TTITLE24=Willie Nelson - Whiskey river
TTITLE25=Willie Nelson - On the road again
EXTD=
EXTT0=
EXTT1=
EXTT2=
EXTT3=
EXTT4=
EXTT5=
EXTT6=
EXTT7=
EXTT8=
EXTT9=
EXTT10=
EXTT11=
EXTT12=
EXTT13=
EXTT14=
EXTT15=
EXTT16=
EXTT17=
EXTT18=
EXTT19=
EXTT20=
EXTT21=
EXTT22=
EXTT23=
EXTT24=
EXTT25=
PLAYORDER=
